<?xml version="1.0" encoding="iso-8859-1"?>
<!-- Uploaded to: SVG Repo, www.svgrepo.com, Generator: SVG Repo Mixer Tools -->
<!DOCTYPE svg PUBLIC "-//W3C//DTD SVG 1.1//EN" "http://www.w3.org/Graphics/SVG/1.1/DTD/svg11.dtd">
<svg fill="#000000" height="800px" width="800px" version="1.1" id="Capa_1" xmlns="http://www.w3.org/2000/svg" xmlns:xlink="http://www.w3.org/1999/xlink" 
	 viewBox="0 0 511 511" xml:space="preserve">
<path d="M399.5,200c-43.94,0-82.02,25.552-100.175,62.574c-3.25,5.467-8.053,9.46-13.701,11.329
	c-1.372,0.454-2.762,0.901-4.167,1.342c2.29-16.933,6.187-33.68,11.625-49.926c1.883-5.624,5.817-10.375,11.163-13.555
	C341.365,193.646,367,155.512,367,111.5C367,50.019,316.981,0,255.5,0S144,50.019,144,111.5c0,44.066,25.697,82.241,62.892,100.333
	c5.252,3.125,9.125,7.814,10.989,13.378c5.458,16.281,9.368,33.065,11.662,50.034c-1.408-0.441-2.801-0.89-4.177-1.345
	c-5.642-1.867-10.439-5.855-13.685-11.313C193.529,225.558,155.445,200,111.5,200C50.019,200,0,250.019,0,311.5
	S50.019,423,111.5,423c43.929,0,82.001-25.539,100.162-62.547c3.264-5.488,8.091-9.498,13.768-11.374
	c1.364-0.451,2.746-0.896,4.143-1.333c-3.547,26.673-11.001,52.53-22.211,77.007c-12.4,27.073-29.093,51.836-49.617,73.603
	c-2.053,2.178-2.615,5.368-1.429,8.117s3.893,4.528,6.886,4.528H191.5h128h28.299c2.993,0,5.7-1.78,6.886-4.528
	s0.624-5.939-1.429-8.117c-20.523-21.766-37.217-46.53-49.617-73.603c-11.21-24.477-18.664-50.333-22.211-77.007
	c1.397,0.438,2.779,0.883,4.144,1.334c5.676,1.876,10.502,5.885,13.767,11.374C317.499,397.461,355.571,423,399.5,423
	c61.481,0,111.5-50.019,111.5-111.5S460.981,200,399.5,200z M472.799,374.193l-25.771-25.771
	c6.494-8.341,10.84-18.423,12.213-29.422h13.993c2.895,8.571,10.602,14.946,19.896,15.881
	C489.451,349.608,482.381,363.005,472.799,374.193z M407,385.234v-13.993c10.999-1.374,21.081-5.719,29.422-12.213l25.771,25.771
	c-11.188,9.582-24.585,16.652-39.312,20.331C421.946,395.836,415.571,388.129,407,385.234z M376.119,405.13
	c-14.727-3.679-28.125-10.749-39.312-20.331l25.771-25.771c8.341,6.494,18.423,10.84,29.422,12.213v13.993
	C383.429,388.129,377.054,395.836,376.119,405.13z M314.018,356.236c-0.111-0.316-0.236-0.631-0.393-0.938
	c-0.354-0.693-0.727-1.369-1.111-2.035c-2.809-5.828-5.044-11.981-6.643-18.383c9.293-0.935,17-7.309,19.896-15.881h13.993
	c1.374,10.999,5.719,21.081,12.213,29.422l-25.771,25.771C321.5,368.705,317.406,362.684,314.018,356.236z M313.611,267.728
	c0.156-0.307,0.281-0.62,0.392-0.936c3.391-6.459,7.491-12.489,12.198-17.985l25.771,25.771
	c-6.494,8.341-10.84,18.423-12.213,29.422h-13.993c-2.895-8.571-10.602-14.946-19.896-15.881c1.598-6.395,3.83-12.542,6.635-18.364
	C312.888,269.092,313.259,268.418,313.611,267.728z M392,237.766v13.993c-10.999,1.374-21.081,5.719-29.422,12.213l-25.771-25.771
	c11.188-9.582,24.585-16.652,39.312-20.331C377.054,227.164,383.429,234.871,392,237.766z M422.881,217.87
	c14.727,3.679,28.125,10.749,39.312,20.331l-25.771,25.771c-8.341-6.494-18.423-10.84-29.422-12.213v-13.993
	C415.571,234.871,421.946,227.164,422.881,217.87z M493.13,288.119c-9.293,0.935-17,7.309-19.896,15.881h-13.993
	c-1.374-10.999-5.719-21.081-12.213-29.422l25.771-25.771C482.381,259.995,489.451,273.392,493.13,288.119z M444.725,311.5
	c0,9.766-3.122,18.812-8.406,26.212l-12.285-12.285c2.344-4.113,3.691-8.865,3.691-13.928s-1.347-9.815-3.691-13.928l12.285-12.285
	C441.603,292.688,444.725,301.734,444.725,311.5z M399.5,356.725c-9.766,0-18.812-3.122-26.212-8.406l12.285-12.285
	c4.113,2.344,8.865,3.691,13.928,3.691s9.815-1.347,13.928-3.691l12.285,12.285C418.312,353.603,409.266,356.725,399.5,356.725z
	 M354.275,311.5c0-9.766,3.122-18.812,8.406-26.212l12.285,12.285c-2.344,4.113-3.691,8.865-3.691,13.928s1.347,9.815,3.691,13.928
	l-12.285,12.285C357.397,330.312,354.275,321.266,354.275,311.5z M399.5,266.275c9.766,0,18.812,3.122,26.212,8.406l-12.285,12.285
	c-4.113-2.344-8.865-3.691-13.928-3.691s-9.815,1.347-13.928,3.691l-12.285-12.285C380.688,269.397,389.734,266.275,399.5,266.275z
	 M386.275,311.5c0-7.292,5.933-13.225,13.225-13.225s13.225,5.933,13.225,13.225s-5.933,13.225-13.225,13.225
	S386.275,318.792,386.275,311.5z M303.379,320.006c-0.246-2.804-0.379-5.639-0.379-8.506s0.133-5.702,0.379-8.506
	c0.041,0.001,0.08,0.006,0.121,0.006c4.687,0,8.5,3.813,8.5,8.5s-3.813,8.5-8.5,8.5C303.459,320,303.42,320.005,303.379,320.006z
	 M495.5,320c-4.685,0-8.497-3.811-8.5-8.495c0-0.002,0-0.003,0-0.005s0-0.003,0-0.005c0.003-4.685,3.814-8.495,8.5-8.495
	c0.041,0,0.08-0.005,0.121-0.006c0.246,2.804,0.379,5.639,0.379,8.506s-0.133,5.702-0.379,8.506
	C495.58,320.005,495.541,320,495.5,320z M408.006,215.379c-0.001,0.041-0.006,0.08-0.006,0.121c0,4.687-3.813,8.5-8.5,8.5
	s-8.5-3.813-8.5-8.5c0-0.041-0.005-0.08-0.006-0.121c2.804-0.246,5.639-0.379,8.506-0.379S405.202,215.133,408.006,215.379z
	 M212.011,197.533c-0.311-0.157-0.629-0.282-0.949-0.393c-6.561-3.418-12.681-7.567-18.254-12.341l25.771-25.771
	c8.341,6.494,18.423,10.84,29.422,12.213v13.993c-8.571,2.895-14.946,10.602-15.881,19.896c-6.311-1.576-12.378-3.773-18.131-6.526
	C213.341,198.233,212.683,197.873,212.011,197.533z M161.87,134.881c9.293-0.935,17-7.309,19.896-15.881h13.993
	c1.374,10.999,5.719,21.081,12.213,29.422l-25.771,25.771C172.619,163.005,165.549,149.608,161.87,134.881z M159,111.5
	c0-2.867,0.133-5.702,0.379-8.506c0.041,0.001,0.08,0.006,0.121,0.006c4.687,0,8.5,3.813,8.5,8.5s-3.813,8.5-8.5,8.5
	c-0.041,0-0.08,0.005-0.121,0.006C159.133,117.202,159,114.367,159,111.5z M182.201,48.807l25.771,25.771
	c-6.494,8.341-10.84,18.423-12.213,29.422h-13.993c-2.895-8.571-10.602-14.946-19.896-15.881
	C165.549,73.392,172.619,59.995,182.201,48.807z M248,37.766v13.993c-10.999,1.374-21.081,5.719-29.422,12.213l-25.771-25.771
	c11.188-9.582,24.585-16.652,39.312-20.331C233.054,27.164,239.429,34.871,248,37.766z M278.881,17.87
	c14.727,3.679,28.125,10.749,39.312,20.331l-25.771,25.771c-8.341-6.494-18.423-10.84-29.422-12.213V37.766
	C271.571,34.871,277.946,27.164,278.881,17.87z M349.13,88.119c-9.293,0.935-17,7.309-19.896,15.881h-13.993
	c-1.374-10.999-5.719-21.081-12.213-29.422l25.771-25.771C338.381,59.995,345.451,73.392,349.13,88.119z M352,111.5
	c0,2.867-0.133,5.702-0.379,8.506c-0.041-0.001-0.08-0.006-0.121-0.006c-4.685,0-8.497-3.811-8.5-8.495c0-0.002,0-0.003,0-0.005
	s0-0.003,0-0.005c0.003-4.685,3.814-8.495,8.5-8.495c0.041,0,0.08-0.005,0.121-0.006C351.867,105.798,352,108.633,352,111.5z
	 M328.799,174.193l-25.771-25.771c6.494-8.341,10.84-18.423,12.213-29.422h13.993c2.895,8.571,10.602,14.946,19.896,15.881
	C345.451,149.608,338.381,163.005,328.799,174.193z M300.05,197.081c-0.318,0.11-0.635,0.235-0.944,0.392
	c-0.68,0.345-1.344,0.71-1.999,1.086c-5.781,2.774-11.881,4.985-18.227,6.57c-0.935-9.293-7.309-17-15.881-19.896v-13.993
	c10.999-1.374,21.081-5.719,29.422-12.213l25.771,25.771C312.652,189.545,306.568,193.674,300.05,197.081z M210.275,111.5
	c0-9.766,3.122-18.812,8.406-26.212l12.285,12.285c-2.344,4.113-3.691,8.865-3.691,13.928s1.347,9.815,3.691,13.928l-12.285,12.285
	C213.397,130.312,210.275,121.266,210.275,111.5z M255.5,66.275c9.766,0,18.812,3.122,26.212,8.406l-12.285,12.285
	c-4.113-2.344-8.865-3.691-13.928-3.691s-9.815,1.347-13.928,3.691l-12.285-12.285C236.688,69.397,245.734,66.275,255.5,66.275z
	 M300.725,111.5c0,9.766-3.122,18.812-8.406,26.212l-12.285-12.285c2.344-4.113,3.691-8.865,3.691-13.928s-1.347-9.815-3.691-13.928
	l12.285-12.285C297.603,92.688,300.725,101.734,300.725,111.5z M242.275,111.5c0-7.292,5.933-13.225,13.225-13.225
	s13.225,5.933,13.225,13.225s-5.933,13.225-13.225,13.225S242.275,118.792,242.275,111.5z M241.572,136.034
	c4.113,2.344,8.865,3.691,13.928,3.691s9.815-1.347,13.928-3.691l12.285,12.285c-7.401,5.284-16.446,8.406-26.212,8.406
	s-18.812-3.122-26.212-8.406L241.572,136.034z M247,207.5c0-4.687,3.813-8.5,8.5-8.5s8.5,3.813,8.5,8.5
	c0,0.041,0.005,0.08,0.006,0.121c-2.804,0.246-5.639,0.379-8.506,0.379s-5.702-0.133-8.506-0.379
	C246.995,207.58,247,207.541,247,207.5z M264.006,15.379C264.005,15.42,264,15.459,264,15.5c0,4.687-3.813,8.5-8.5,8.5
	s-8.5-3.813-8.5-8.5c0-0.041-0.005-0.08-0.006-0.121C249.798,15.133,252.633,15,255.5,15S261.202,15.133,264.006,15.379z M255.5,223
	c8.013,0,15.829-0.857,23.368-2.471c-0.003,0.01-0.007,0.02-0.011,0.029c-6.638,19.831-11.095,40.373-13.273,61.107
	c-3.168-1.074-6.558-1.665-10.084-1.665s-6.916,0.591-10.084,1.665c-2.178-20.743-6.639-41.294-13.284-61.136
	C239.67,222.143,247.486,223,255.5,223z M255.5,487c6.396,0,11.942,3.666,14.678,9h-29.357C243.558,490.666,249.104,487,255.5,487z
	 M255.5,328c-9.098,0-16.5-7.402-16.5-16.5s7.402-16.5,16.5-16.5s16.5,7.402,16.5,16.5S264.598,328,255.5,328z M197.375,355.299
	c-0.157,0.307-0.282,0.621-0.393,0.938c-3.388,6.448-7.483,12.468-12.183,17.956l-25.771-25.771
	c6.494-8.341,10.84-18.423,12.213-29.422h13.993c2.895,8.571,10.602,14.946,19.896,15.881c-1.599,6.402-3.834,12.555-6.644,18.383
	C198.102,353.93,197.729,354.606,197.375,355.299z M119,385.234v-13.993c10.999-1.374,21.081-5.719,29.422-12.213l25.771,25.771
	c-11.188,9.582-24.585,16.652-39.312,20.331C133.946,395.836,127.571,388.129,119,385.234z M88.119,405.13
	c-14.727-3.679-28.125-10.749-39.312-20.331l25.771-25.771c8.341,6.494,18.423,10.84,29.422,12.213v13.993
	C95.429,388.129,89.054,395.836,88.119,405.13z M17.87,334.881c9.293-0.935,17-7.309,19.896-15.881h13.993
	c1.374,10.999,5.719,21.081,12.213,29.422l-25.771,25.771C28.619,363.005,21.549,349.608,17.87,334.881z M15,311.5
	c0-2.867,0.133-5.702,0.379-8.506C15.42,302.995,15.459,303,15.5,303c4.687,0,8.5,3.813,8.5,8.5s-3.813,8.5-8.5,8.5
	c-0.041,0-0.08,0.005-0.121,0.006C15.133,317.202,15,314.367,15,311.5z M38.201,248.807l25.771,25.771
	c-6.494,8.341-10.84,18.423-12.213,29.422H37.766c-2.895-8.571-10.602-14.946-19.896-15.881
	C21.549,273.392,28.619,259.995,38.201,248.807z M104,237.766v13.993c-10.999,1.374-21.081,5.719-29.422,12.213l-25.771-25.771
	c11.188-9.582,24.585-16.652,39.312-20.331C89.054,227.164,95.429,234.871,104,237.766z M134.881,217.87
	c14.727,3.679,28.125,10.749,39.312,20.331l-25.771,25.771c-8.341-6.494-18.423-10.84-29.422-12.213v-13.993
	C127.571,234.871,133.946,227.164,134.881,217.87z M197.001,266.8c0.111,0.317,0.236,0.631,0.392,0.938
	c0.352,0.69,0.723,1.364,1.106,2.028c2.803,5.819,5.033,11.962,6.63,18.354c-9.293,0.935-17,7.309-19.896,15.881h-13.993
	c-1.374-10.999-5.719-21.081-12.213-29.422l25.771-25.771C189.508,254.306,193.609,260.338,197.001,266.8z M207.5,320
	c-4.685,0-8.497-3.811-8.5-8.495c0-0.002,0-0.003,0-0.005s0-0.003,0-0.005c0.003-4.685,3.814-8.495,8.5-8.495
	c0.041,0,0.08-0.005,0.121-0.006c0.246,2.804,0.379,5.639,0.379,8.506s-0.133,5.702-0.379,8.506
	C207.58,320.005,207.541,320,207.5,320z M156.725,311.5c0,9.766-3.122,18.812-8.406,26.212l-12.285-12.285
	c2.344-4.113,3.691-8.865,3.691-13.928s-1.347-9.815-3.691-13.928l12.285-12.285C153.603,292.688,156.725,301.734,156.725,311.5z
	 M111.5,356.725c-9.766,0-18.812-3.122-26.212-8.406l12.285-12.285c4.113,2.344,8.865,3.691,13.928,3.691s9.815-1.347,13.928-3.691
	l12.285,12.285C130.312,353.603,121.266,356.725,111.5,356.725z M66.275,311.5c0-9.766,3.122-18.812,8.406-26.212l12.285,12.285
	c-2.344,4.113-3.691,8.865-3.691,13.928s1.347,9.815,3.691,13.928l-12.285,12.285C69.397,330.312,66.275,321.266,66.275,311.5z
	 M111.5,266.275c9.766,0,18.812,3.122,26.212,8.406l-12.285,12.285c-4.113-2.344-8.865-3.691-13.928-3.691
	s-9.815,1.347-13.928,3.691l-12.285-12.285C92.688,269.397,101.734,266.275,111.5,266.275z M98.275,311.5
	c0-7.292,5.933-13.225,13.225-13.225s13.225,5.933,13.225,13.225s-5.933,13.225-13.225,13.225S98.275,318.792,98.275,311.5z
	 M120.006,215.379c-0.001,0.041-0.006,0.08-0.006,0.121c0,4.687-3.813,8.5-8.5,8.5s-8.5-3.813-8.5-8.5
	c0-0.041-0.005-0.08-0.006-0.121c2.804-0.246,5.639-0.379,8.506-0.379S117.202,215.133,120.006,215.379z M102.994,407.621
	c0.001-0.041,0.006-0.08,0.006-0.121c0-4.687,3.813-8.5,8.5-8.5s8.5,3.813,8.5,8.5c0,0.041,0.005,0.08,0.006,0.121
	c-2.804,0.246-5.639,0.379-8.506,0.379S105.798,407.867,102.994,407.621z M220.72,334.837c-0.068,0.022-0.133,0.049-0.2,0.072
	c1.62-7.552,2.48-15.381,2.48-23.409c0-8.027-0.86-15.857-2.48-23.407c0.045,0.015,0.089,0.033,0.134,0.048
	c3.443,1.14,6.993,2.235,10.594,3.282C226.724,296.877,224,303.876,224,311.5c0,7.624,2.724,14.623,7.248,20.078
	C227.666,332.619,224.137,333.707,220.72,334.837z M179.905,496c16.568-19.757,30.354-41.557,41.092-65.001
	c13.005-28.394,21.203-58.545,24.418-89.664c0.846,0.287,1.708,0.541,2.584,0.756v130.819
	c-11.354,2.784-20.306,11.737-23.091,23.091H191.5H179.905z M290.002,430.999c10.738,23.445,24.524,45.245,41.092,65.001H319.5
	h-33.409c-2.784-11.354-11.737-20.306-23.091-23.091V342.091c0.877-0.215,1.738-0.469,2.584-0.756
	C268.799,372.454,276.998,402.604,290.002,430.999z M290.281,334.838c-3.418-1.13-6.946-2.219-10.528-3.26
	c4.524-5.455,7.248-12.454,7.248-20.078c0-7.624-2.724-14.623-7.248-20.078c3.601-1.047,7.148-2.142,10.583-3.279
	c0.049-0.016,0.096-0.036,0.144-0.052c-1.62,7.551-2.48,15.38-2.48,23.408c0,8.028,0.86,15.858,2.48,23.41
	C290.413,334.887,290.348,334.86,290.281,334.838z M390.994,407.621c0.001-0.041,0.006-0.08,0.006-0.121c0-4.687,3.813-8.5,8.5-8.5
	s8.5,3.813,8.5,8.5c0,0.041,0.005,0.08,0.006,0.121c-2.804,0.246-5.639,0.379-8.506,0.379S393.798,407.867,390.994,407.621z"/>
</svg>