<?xml version="1.0" encoding="iso-8859-1"?>
<!-- Uploaded to: SVG Repo, www.svgrepo.com, Generator: SVG Repo Mixer Tools -->
<!DOCTYPE svg PUBLIC "-//W3C//DTD SVG 1.1//EN" "http://www.w3.org/Graphics/SVG/1.1/DTD/svg11.dtd">
<svg fill="#E64C3C" height="800px" width="800px" version="1.1" id="Capa_1" xmlns="http://www.w3.org/2000/svg" xmlns:xlink="http://www.w3.org/1999/xlink" 
	 viewBox="0 0 511 511" xml:space="preserve">
<path d="M507.911,249.435C425.271,189.333,321.667,85.729,261.565,3.089C260.154,1.148,257.899,0,255.5,0s-4.654,1.148-6.065,3.089
	C189.333,85.729,85.729,189.333,3.089,249.435C1.148,250.846,0,253.101,0,255.5s1.148,4.654,3.089,6.065
	c41.866,30.448,89.111,72.063,133.356,116.46c0.362,1.013,0.94,1.967,1.752,2.778c0.797,0.797,1.731,1.369,2.724,1.732
	c41.395,41.905,79.89,86.017,108.514,125.375c1.411,1.941,3.666,3.089,6.065,3.089s4.654-1.148,6.065-3.089
	c28.625-39.359,67.119-83.471,108.514-125.375c0.993-0.363,1.927-0.936,2.724-1.732c0.812-0.811,1.39-1.765,1.752-2.778
	c44.245-44.396,91.49-86.011,133.356-116.46c1.941-1.411,3.089-3.666,3.089-6.065S509.852,250.846,507.911,249.435z M255.5,20.128
	c29.471,39.352,67.931,82.795,108.899,123.867l-52.589,52.589c-13.433-11.322-30.308-18.681-48.809-20.259v-26.234
	c13.759-3.374,24-15.806,24-30.591c0-17.369-14.131-31.5-31.5-31.5S224,102.131,224,119.5c0,14.785,10.241,27.216,24,30.591v26.234
	c-18.501,1.578-35.376,8.937-48.81,20.259l-52.589-52.589C187.569,102.923,226.029,59.48,255.5,20.128z M328,263.507
	c-0.002,17.29-6.095,33.178-16.236,45.65l-12.098-12.098C306.77,287.732,311,276.103,311,263.5s-4.23-24.232-11.334-33.559
	l12.098-12.098c10.141,12.473,16.235,28.362,16.236,45.652c0,0.002,0,0.005,0,0.007C328,263.503,328,263.505,328,263.507z
	 M255.5,391c9.098,0,16.5,7.402,16.5,16.5s-7.402,16.5-16.5,16.5s-16.5-7.402-16.5-16.5S246.401,391,255.5,391z M255.5,336
	c-17.292,0-33.183-6.094-45.657-16.236l12.098-12.098C231.268,314.77,242.897,319,255.5,319s24.232-4.23,33.559-11.334
	l12.098,12.098C288.683,329.906,272.792,336,255.5,336z M255.5,136c-9.098,0-16.5-7.402-16.5-16.5s7.402-16.5,16.5-16.5
	s16.5,7.402,16.5,16.5S264.599,136,255.5,136z M255.494,191c0.002,0,0.004,0,0.007,0s0.004,0,0.006,0
	c17.29,0.001,33.178,6.095,45.651,16.236l-12.098,12.098C279.732,212.23,268.103,208,255.5,208s-24.232,4.23-33.559,11.334
	l-12.098-12.098C222.315,197.095,238.204,191.001,255.494,191z M255.5,304c-22.332,0-40.5-18.168-40.5-40.5s18.168-40.5,40.5-40.5
	s40.5,18.168,40.5,40.5S277.832,304,255.5,304z M211.334,229.941C204.23,239.268,200,250.897,200,263.5s4.23,24.232,11.334,33.559
	l-12.098,12.098C189.094,296.683,183,280.792,183,263.5s6.094-33.183,16.236-45.657L211.334,229.941z M20.128,255.5
	c36.792-27.554,77.161-62.968,115.825-100.94l52.631,52.631c-11.322,13.434-18.681,30.309-20.259,48.81h-26.234
	c-3.374-13.759-15.806-24-30.591-24C94.131,232,80,246.131,80,263.5S94.131,295,111.5,295c14.785,0,27.216-10.241,30.591-24h26.234
	c1.578,18.501,8.937,35.376,20.259,48.81l-44.589,44.589C102.923,323.431,59.48,284.971,20.128,255.5z M128,263.505
	c-0.003,9.096-7.403,16.495-16.5,16.495c-9.098,0-16.5-7.402-16.5-16.5s7.402-16.5,16.5-16.5c9.096,0,16.497,7.399,16.5,16.495
	c0,0.002,0,0.003,0,0.005S128,263.503,128,263.505z M255.5,490.872c-27.554-36.792-62.968-77.162-100.94-115.825l44.631-44.631
	c13.433,11.322,30.308,18.681,48.809,20.259v26.234c-13.759,3.374-24,15.806-24,30.591c0,17.369,14.131,31.5,31.5,31.5
	s31.5-14.131,31.5-31.5c0-14.785-10.241-27.216-24-30.591v-26.234c18.501-1.578,35.376-8.937,48.81-20.259l44.631,44.631
	C318.468,413.71,283.054,454.08,255.5,490.872z M367.005,364.399l-44.589-44.589c11.322-13.433,18.681-30.308,20.259-48.809h26.234
	c3.374,13.759,15.806,24,30.591,24c17.369,0,31.5-14.131,31.5-31.5s-14.131-31.5-31.5-31.5c-14.785,0-27.216,10.241-30.591,24
	h-26.234c-1.578-18.501-8.937-35.377-20.259-48.811l52.631-52.631c38.664,37.972,79.033,73.386,115.825,100.94
	C451.52,284.971,408.077,323.431,367.005,364.399z M383,263.501c0-9.098,7.402-16.5,16.5-16.5s16.5,7.402,16.5,16.5
	s-7.402,16.5-16.5,16.5S383,272.599,383,263.501z"/>
</svg>