<?xml version="1.0" encoding="iso-8859-1"?>
<!-- Uploaded to: SVG Repo, www.svgrepo.com, Generator: SVG Repo Mixer Tools -->
<!DOCTYPE svg PUBLIC "-//W3C//DTD SVG 1.1//EN" "http://www.w3.org/Graphics/SVG/1.1/DTD/svg11.dtd">
<svg fill="#E64C3C" height="800px" width="800px" version="1.1" id="Capa_1" xmlns="http://www.w3.org/2000/svg" xmlns:xlink="http://www.w3.org/1999/xlink" 
	 viewBox="0 0 511 511" xml:space="preserve">
<path d="M367.5,28c-43.699,0-84.842,19.961-112,53.867C228.342,47.961,187.199,28,143.5,28C64.374,28,0,92.374,0,171.5
	c0,38.869,13.438,79.492,39.94,120.742c20.935,32.584,50.057,65.672,86.558,98.347c4.048,3.624,8.1,7.161,12.138,10.611
	c0.063,0.054,0.125,0.11,0.189,0.161c57.632,49.212,112.403,80.34,112.988,80.67c1.144,0.646,2.416,0.969,3.687,0.969
	s2.543-0.323,3.687-0.969c0.585-0.331,55.356-31.458,112.988-80.67c0.064-0.052,0.126-0.107,0.189-0.162
	c4.038-3.451,8.09-6.988,12.138-10.611c36.5-32.674,65.623-65.763,86.558-98.347C497.562,250.992,511,210.369,511,171.5
	C511,92.374,446.626,28,367.5,28z M470.412,263.806l-47.36-47.36C433.015,204.156,439,188.517,439,171.5
	s-5.985-32.656-15.948-44.946l40.412-40.412C483.69,108.856,496,138.765,496,171.5C496,201.14,487.399,232.106,470.412,263.806z
	 M343,171.5c0-13.509,10.991-24.5,24.5-24.5s24.5,10.991,24.5,24.5S381.009,196,367.5,196S343,185.009,343,171.5z M389.61,138.784
	c-6.313-4.28-13.925-6.784-22.11-6.784s-15.796,2.503-22.11,6.784l-12.161-12.161C342.742,119.34,354.621,115,367.5,115
	s24.758,4.34,34.271,11.623L389.61,138.784z M334.784,149.39c-4.28,6.313-6.784,13.925-6.784,22.11s2.503,15.796,6.784,22.11
	l-12.161,12.161C315.34,196.258,311,184.379,311,171.5s4.34-24.758,11.623-34.271L334.784,149.39z M345.39,204.216
	c6.313,4.28,13.925,6.784,22.11,6.784s15.796-2.503,22.11-6.784l12.161,12.161C392.258,223.66,380.379,228,367.5,228
	s-24.758-4.34-34.271-11.623L345.39,204.216z M400.216,193.61c4.28-6.313,6.784-13.925,6.784-22.11s-2.503-15.796-6.784-22.11
	l12.161-12.161C419.66,146.742,424,158.621,424,171.5s-4.34,24.758-11.623,34.271L400.216,193.61z M452.857,75.536l-40.412,40.412
	C400.156,105.985,384.517,100,367.5,100s-32.656,5.985-44.946,15.948l-40.419-40.419C305.421,54.809,335.704,43,367.5,43
	C400.235,43,430.144,55.31,452.857,75.536z M255.5,101.927c2.466,0,4.775-1.212,6.174-3.243c3.043-4.414,6.338-8.601,9.853-12.551
	l40.421,40.421C301.985,138.844,296,154.483,296,171.5s5.985,32.656,15.948,44.946l-11.502,11.502
	c-10.46-8.48-23.347-14.076-37.446-15.552v-18.63c9.29-3.138,16-11.93,16-22.266c0-12.958-10.542-23.5-23.5-23.5
	S232,158.542,232,171.5c0,10.336,6.71,19.128,16,22.266v18.63c-14.099,1.477-26.985,7.073-37.446,15.552l-11.502-11.502
	C209.015,204.156,215,188.517,215,171.5c0-17.019-5.986-32.66-15.951-44.951l40.42-40.42c3.516,3.951,6.812,8.139,9.856,12.555
	C250.725,100.714,253.034,101.927,255.5,101.927z M255.5,387c4.687,0,8.5,3.813,8.5,8.5s-3.813,8.5-8.5,8.5s-8.5-3.813-8.5-8.5
	S250.813,387,255.5,387z M255.5,340c-12.879,0-24.758-4.34-34.271-11.623l12.161-12.161c6.313,4.28,13.925,6.784,22.11,6.784
	s15.796-2.503,22.11-6.784l12.161,12.161C280.258,335.66,268.379,340,255.5,340z M255.5,180c-4.687,0-8.5-3.813-8.5-8.5
	s3.813-8.5,8.5-8.5s8.5,3.813,8.5,8.5S260.187,180,255.5,180z M255.5,227c12.879,0,24.758,4.34,34.271,11.623l-12.161,12.161
	c-6.313-4.28-13.925-6.784-22.11-6.784s-15.796,2.503-22.11,6.784l-12.161-12.161C230.742,231.34,242.621,227,255.5,227z M231,283.5
	c0-13.509,10.991-24.5,24.5-24.5s24.5,10.991,24.5,24.5S269.009,308,255.5,308S231,297.009,231,283.5z M222.784,261.39
	c-4.28,6.313-6.784,13.925-6.784,22.11s2.503,15.796,6.784,22.11l-12.161,12.161C203.34,308.258,199,296.379,199,283.5
	s4.34-24.758,11.623-34.271L222.784,261.39z M288.216,305.61c4.28-6.313,6.784-13.925,6.784-22.11s-2.503-15.796-6.784-22.11
	l12.161-12.161C307.66,258.742,312,270.621,312,283.5s-4.34,24.758-11.623,34.271L288.216,305.61z M119,171.5
	c0-13.509,10.991-24.5,24.5-24.5s24.5,10.991,24.5,24.5S157.009,196,143.5,196S119,185.009,119,171.5z M165.605,138.78
	c-6.313-4.278-13.922-6.78-22.105-6.78c-8.185,0-15.796,2.503-22.11,6.784l-12.161-12.161C118.742,119.34,130.621,115,143.5,115
	c12.877,0,24.754,4.339,34.266,11.619L165.605,138.78z M110.784,149.39c-4.28,6.313-6.784,13.925-6.784,22.11
	s2.503,15.796,6.784,22.11l-12.161,12.161C91.34,196.258,87,184.379,87,171.5s4.34-24.758,11.623-34.271L110.784,149.39z
	 M121.39,204.216c6.313,4.28,13.925,6.784,22.11,6.784s15.796-2.503,22.11-6.784l12.161,12.161
	C168.258,223.66,156.379,228,143.5,228s-24.758-4.34-34.271-11.623L121.39,204.216z M176.216,193.61
	c4.28-6.313,6.784-13.925,6.784-22.11c0-8.188-2.505-15.8-6.787-22.115l12.161-12.161C195.658,146.739,200,158.619,200,171.5
	c0,12.879-4.34,24.758-11.623,34.271L176.216,193.61z M228.861,75.524l-40.419,40.419C176.152,105.983,160.515,100,143.5,100
	c-17.017,0-32.656,5.985-44.946,15.948L58.143,75.536C80.856,55.31,110.765,43,143.5,43C175.294,43,205.575,54.807,228.861,75.524z
	 M47.536,86.143l40.412,40.412C77.985,138.844,72,154.483,72,171.5s5.985,32.656,15.948,44.946l-47.36,47.36
	C23.601,232.106,15,201.14,15,171.5C15,138.765,27.31,108.856,47.536,86.143z M52.56,284.133c-1.464-2.279-2.882-4.554-4.261-6.826
	l50.255-50.255C110.844,237.015,126.483,243,143.5,243s32.656-5.985,44.946-15.948l11.502,11.502
	c-8.48,10.46-14.076,23.347-15.552,37.446h-18.63c-3.138-9.29-11.93-16-22.266-16c-12.958,0-23.5,10.542-23.5,23.5
	s10.542,23.5,23.5,23.5c10.336,0,19.128-6.71,22.266-16h18.63c1.477,14.099,7.073,26.985,15.552,37.446l-56.814,56.814
	c-2.209-1.927-4.42-3.87-6.631-5.849C101.007,347.638,72.765,315.582,52.56,284.133z M152,283.5c0,4.687-3.813,8.5-8.5,8.5
	s-8.5-3.813-8.5-8.5s3.813-8.5,8.5-8.5S152,278.813,152,283.5z M255.499,466.819c-12.521-7.412-55.155-33.556-100.921-71.791
	l55.976-55.976c10.46,8.48,23.347,14.076,37.446,15.552v18.63c-9.29,3.138-16,11.93-16,22.266c0,12.958,10.542,23.5,23.5,23.5
	s23.5-10.542,23.5-23.5c0-10.336-6.71-19.128-16-22.266v-18.63c14.099-1.477,26.985-7.073,37.446-15.552l55.976,55.976
	C310.688,433.231,268.025,459.401,255.499,466.819z M374.701,379.23c-2.278,2.041-4.557,4.044-6.834,6.03l-56.814-56.814
	c8.48-10.46,14.076-23.347,15.552-37.446h18.63c3.138,9.29,11.93,16,22.266,16c12.958,0,23.5-10.542,23.5-23.5
	S380.458,260,367.5,260c-10.336,0-19.128,6.71-22.266,16h-18.63c-1.477-14.099-7.073-26.985-15.552-37.446l11.502-11.502
	C334.844,237.015,350.483,243,367.5,243s32.656-5.985,44.946-15.948l50.254,50.254c-1.355,2.234-2.748,4.47-4.185,6.709
	C438.344,315.442,410.145,347.476,374.701,379.23z M359,283.5c0-4.687,3.813-8.5,8.5-8.5s8.5,3.813,8.5,8.5s-3.813,8.5-8.5,8.5
	S359,288.187,359,283.5z"/>
</svg>