<?xml version="1.0" encoding="iso-8859-1"?>
<!-- Uploaded to: SVG Repo, www.svgrepo.com, Generator: SVG Repo Mixer Tools -->
<!DOCTYPE svg PUBLIC "-//W3C//DTD SVG 1.1//EN" "http://www.w3.org/Graphics/SVG/1.1/DTD/svg11.dtd">
<svg fill="#0F0A16" height="800px" width="800px" version="1.1" id="Capa_1" xmlns="http://www.w3.org/2000/svg" xmlns:xlink="http://www.w3.org/1999/xlink" 
	 viewBox="0 0 511 511" xml:space="preserve">
<path d="M457.513,177.111c-19.607-30.255-46.877-60.974-81.053-91.302C318.532,34.401,259.75,1.284,259.163,0.955
	c-2.275-1.273-5.05-1.273-7.325,0c-0.587,0.329-59.37,33.446-117.297,84.854c-34.176,30.329-61.446,61.047-81.053,91.302
	c-24.851,38.345-37.451,76.121-37.451,112.28C16.036,363.063,76.465,423,150.742,423c23.014,0,45.045-5.631,64.761-16.437
	c-12.671,33.944-32.166,65.359-57.089,91.792c-2.054,2.178-2.616,5.368-1.43,8.117s3.893,4.528,6.886,4.528h184.599
	c2.994,0,5.7-1.78,6.886-4.528s0.624-5.939-1.43-8.117c-24.701-26.197-44.088-57.324-56.768-90.942
	c19.325,10.248,40.79,15.587,63.1,15.587c74.277,0,134.706-59.937,134.706-133.609C494.964,253.232,482.364,215.456,457.513,177.111
	z M444.926,185.269c4.112,6.345,7.857,12.662,11.25,18.949l-43.73,43.73C400.156,237.985,384.517,232,367.5,232
	s-32.656,5.985-44.946,15.948l-11.502-11.502c8.48-10.46,14.076-23.347,15.552-37.446h18.63c3.138,9.29,11.93,16,22.266,16
	c12.958,0,23.5-10.542,23.5-23.5S380.458,168,367.5,168c-10.336,0-19.128,6.71-22.266,16h-18.63
	c-1.477-14.099-7.073-26.985-15.552-37.446l52.298-52.298c1.051,0.92,2.103,1.839,3.154,2.771
	C399.668,126.459,426.053,156.147,444.926,185.269z M255.5,487c6.396,0,11.942,3.666,14.679,9h-29.357
	C243.558,490.666,249.104,487,255.5,487z M255.5,432c-9.098,0-16.5-7.402-16.5-16.5s7.402-16.5,16.5-16.5s16.5,7.402,16.5,16.5
	S264.598,432,255.5,432z M271.83,388.572c-4.765-2.9-10.356-4.572-16.33-4.572c-5.972,0-11.561,1.671-16.325,4.569l-2.898-2.898
	c-0.548-1.351-1.475-2.552-2.745-3.407c-0.436-0.293-0.899-0.518-1.372-0.71l-33.108-33.108C209.015,336.156,215,320.517,215,303.5
	s-5.985-32.656-15.948-44.946l11.502-11.502c10.461,8.48,23.347,14.076,37.446,15.552v18.63c-9.29,3.138-16,11.93-16,22.266
	c0,12.958,10.542,23.5,23.5,23.5s23.5-10.542,23.5-23.5c0-10.336-6.71-19.128-16-22.266v-18.63
	c14.099-1.477,26.985-7.073,37.446-15.552l11.502,11.502C301.985,270.844,296,286.483,296,303.5c0,17.019,5.986,32.66,15.951,44.951
	L271.83,388.572z M87,303.5c0-12.879,4.34-24.758,11.623-34.271l12.161,12.161c-4.28,6.313-6.784,13.925-6.784,22.11
	c0,21.78,17.72,39.5,39.5,39.5c8.185,0,15.796-2.503,22.11-6.784l12.161,12.161C168.258,355.66,156.379,360,143.5,360
	C112.346,360,87,334.654,87,303.5z M143.5,279c13.509,0,24.5,10.991,24.5,24.5S157.009,328,143.5,328S119,317.009,119,303.5
	S129.991,279,143.5,279z M165.61,270.784c-6.313-4.28-13.924-6.784-22.11-6.784s-15.796,2.503-22.11,6.784l-12.161-12.161
	C118.742,251.34,130.621,247,143.5,247s24.758,4.34,34.271,11.623L165.61,270.784z M176.216,325.61
	c4.28-6.313,6.784-13.925,6.784-22.11s-2.504-15.796-6.784-22.11l12.161-12.161C195.66,278.742,200,290.621,200,303.5
	s-4.34,24.758-11.623,34.271L176.216,325.61z M255.5,88c-4.687,0-8.5-3.813-8.5-8.5s3.813-8.5,8.5-8.5s8.5,3.813,8.5,8.5
	S260.187,88,255.5,88z M255.5,135c12.879,0,24.758,4.34,34.271,11.623l-12.161,12.161c-6.313-4.28-13.924-6.784-22.11-6.784
	s-15.796,2.503-22.11,6.784l-12.161-12.161C230.742,139.34,242.621,135,255.5,135z M255.5,295c4.687,0,8.5,3.813,8.5,8.5
	s-3.813,8.5-8.5,8.5s-8.5-3.813-8.5-8.5S250.813,295,255.5,295z M255.5,248c-12.879,0-24.758-4.34-34.271-11.623l12.161-12.161
	c6.313,4.28,13.924,6.784,22.11,6.784s15.796-2.503,22.11-6.784l12.161,12.161C280.258,243.66,268.379,248,255.5,248z M280,191.5
	c0,13.509-10.991,24.5-24.5,24.5S231,205.009,231,191.5s10.991-24.5,24.5-24.5S280,177.991,280,191.5z M288.216,213.61
	c4.28-6.313,6.784-13.925,6.784-22.11s-2.504-15.796-6.784-22.11l12.161-12.161C307.66,166.742,312,178.621,312,191.5
	s-4.34,24.758-11.623,34.271L288.216,213.61z M222.784,169.39c-4.28,6.313-6.784,13.925-6.784,22.11s2.504,15.796,6.784,22.11
	l-12.161,12.161C203.34,216.258,199,204.379,199,191.5s4.34-24.758,11.623-34.271L222.784,169.39z M311,303.5
	c0-12.879,4.34-24.758,11.623-34.271l12.161,12.161c-4.28,6.313-6.784,13.925-6.784,22.11c0,8.188,2.505,15.8,6.787,22.115
	l-12.161,12.161C315.342,328.261,311,316.381,311,303.5z M343,303.5c0-13.509,10.991-24.5,24.5-24.5s24.5,10.991,24.5,24.5
	S381.009,328,367.5,328S343,317.009,343,303.5z M389.61,270.784c-6.313-4.28-13.924-6.784-22.11-6.784s-15.796,2.503-22.11,6.784
	l-12.161-12.161C342.742,251.34,354.621,247,367.5,247s24.758,4.34,34.271,11.623L389.61,270.784z M345.395,336.22
	c6.312,4.278,13.922,6.78,22.105,6.78c8.185,0,15.796-2.503,22.11-6.784l12.161,12.161C392.258,355.66,380.379,360,367.5,360
	c-12.877,0-24.754-4.339-34.266-11.619L345.395,336.22z M400.216,325.61c4.28-6.313,6.784-13.925,6.784-22.11
	s-2.504-15.796-6.784-22.11l12.161-12.161C419.66,278.742,424,290.621,424,303.5s-4.34,24.758-11.623,34.271L400.216,325.61z
	 M359,191.5c0-4.687,3.813-8.5,8.5-8.5s8.5,3.813,8.5,8.5s-3.813,8.5-8.5,8.5S359,196.187,359,191.5z M255.501,16.165
	c12.188,7.163,53.034,32.057,96.416,68.312l-51.471,51.472c-10.461-8.48-23.347-14.076-37.446-15.552v-18.63
	c9.29-3.138,16-11.93,16-22.266c0-12.958-10.542-23.5-23.5-23.5S232,66.542,232,79.5c0,10.336,6.71,19.128,16,22.266v18.63
	c-14.099,1.477-26.985,7.073-37.446,15.552l-51.47-51.471C202.43,48.256,243.307,23.335,255.501,16.165z M144.294,97.208
	c1.118-0.993,2.237-1.972,3.356-2.952l52.298,52.298c-8.48,10.46-14.076,23.347-15.552,37.446h-18.63
	c-3.138-9.29-11.93-16-22.266-16c-12.958,0-23.5,10.542-23.5,23.5s10.542,23.5,23.5,23.5c10.336,0,19.128-6.71,22.266-16h18.63
	c1.477,14.099,7.073,26.985,15.552,37.446l-11.502,11.502C176.156,237.985,160.517,232,143.5,232
	c-17.017,0-32.656,5.985-44.946,15.948l-43.73-43.73c3.372-6.248,7.093-12.527,11.176-18.833
	C84.838,156.286,111.18,126.619,144.294,97.208z M152,191.5c0,4.687-3.813,8.5-8.5,8.5s-8.5-3.813-8.5-8.5s3.813-8.5,8.5-8.5
	S152,186.813,152,191.5z M31.036,289.391c0-22.915,5.614-46.695,16.728-71.02l40.183,40.184C77.985,270.844,72,286.483,72,303.5
	s5.985,32.656,15.948,44.946l-23.282,23.282C43.858,350.379,31.036,321.343,31.036,289.391z M150.742,408
	c-28.344,0-54.414-9.818-74.942-26.194l22.754-22.754C110.844,369.015,126.483,375,143.5,375c17.017,0,32.656-5.985,44.946-15.948
	l28.865,28.865C197.612,401.076,174.785,408,150.742,408z M224.971,423.264c2.857,11.229,11.763,20.063,23.029,22.826v26.819
	c-11.354,2.784-20.306,11.737-23.091,23.091h-44.35C198.874,474.108,213.866,449.501,224.971,423.264z M331.781,496h-45.691
	c-2.784-11.354-11.737-20.306-23.091-23.091v-26.819c11.961-2.933,21.255-12.714,23.481-24.934
	C297.669,448.185,312.985,473.529,331.781,496z M293.728,387.887l28.831-28.831C334.848,369.017,350.485,375,367.5,375
	c17.017,0,32.656-5.985,44.946-15.948l22.754,22.754C414.672,398.182,388.602,408,360.258,408
	C336.304,408,313.458,401.054,293.728,387.887z M446.334,371.728l-23.282-23.282C433.015,336.156,439,320.517,439,303.5
	s-5.985-32.656-15.948-44.946l40.184-40.184c11.114,24.325,16.728,48.105,16.728,71.02
	C479.964,321.343,467.142,350.379,446.334,371.728z"/>
</svg>